<svg width="70" height="70" viewBox="0 0 70 70" fill="none" xmlns="http://www.w3.org/2000/svg">
<path d="M58.0769 19.5504H42.5385C42.2221 17.3289 41.3553 15.2217 40.0171 13.4205C38.6789 11.6193 36.9116 10.1811 34.876 9.2369C32.8404 8.29266 30.601 7.87225 28.3616 8.01392C26.1221 8.15558 23.9536 8.85482 22.0532 10.048C20.1528 11.2413 18.5808 12.8906 17.4802 14.8461C16.3797 16.8016 15.7854 19.0013 15.7514 21.2449C15.7175 23.4886 16.2449 25.7052 17.2859 27.6931C18.3268 29.681 19.8481 31.3772 21.7115 32.6274C18.2392 34.1025 15.2775 36.5663 13.195 39.7122C11.1126 42.8581 10.0015 46.547 10 50.3197V59.9351C10 60.4451 10.2026 60.9342 10.5633 61.2949C10.9239 61.6555 11.413 61.8581 11.9231 61.8581H46.5385C47.0485 61.8581 47.5376 61.6555 47.8983 61.2949C48.2589 60.9342 48.4615 60.4451 48.4615 59.9351V50.3197H58.0769C58.587 50.3197 59.0761 50.1171 59.4367 49.7564C59.7974 49.3958 60 48.9066 60 48.3966V21.4735C60 20.9635 59.7974 20.4743 59.4367 20.1137C59.0761 19.7531 58.587 19.5504 58.0769 19.5504ZM19.6154 21.4735C19.613 19.089 20.4967 16.7886 22.0949 15.019C23.6932 13.2494 25.892 12.1368 28.2644 11.8972C30.6369 11.6575 33.0137 12.308 34.9336 13.7222C36.8535 15.1364 38.1793 17.2136 38.6538 19.5504H31.1538C30.6438 19.5504 30.1547 19.7531 29.794 20.1137C29.4334 20.4743 29.2308 20.9635 29.2308 21.4735V31.0889C26.6806 31.0889 24.2349 30.0759 22.4317 28.2726C20.6284 26.4694 19.6154 24.0237 19.6154 21.4735ZM44.6154 58.012H13.8462V50.3197C13.8462 46.2394 15.467 42.3263 18.3522 39.4411C21.2374 36.5559 25.1505 34.9351 29.2308 34.9351V48.3966C29.2308 48.9066 29.4334 49.3958 29.794 49.7564C30.1547 50.1171 30.6438 50.3197 31.1538 50.3197H44.6154V58.012ZM56.1538 46.4735H33.0769V23.3966H56.1538V46.4735Z" fill="#EB5757"/>
<path d="M38.8462 33.012C38.3361 33.012 37.847 33.2146 37.4863 33.5752C37.1257 33.9359 36.9231 34.425 36.9231 34.935C36.9231 35.4451 37.1257 35.9342 37.4863 36.2949C37.847 36.6555 38.3361 36.8581 38.8462 36.8581H42.6923V40.7043C42.6923 41.2143 42.8949 41.7035 43.2556 42.0641C43.6162 42.4247 44.1054 42.6274 44.6154 42.6274C45.1254 42.6274 45.6146 42.4247 45.9752 42.0641C46.3359 41.7035 46.5385 41.2143 46.5385 40.7043V36.8581H50.3846C50.8946 36.8581 51.3838 36.6555 51.7444 36.2949C52.1051 35.9342 52.3077 35.4451 52.3077 34.935C52.3077 34.425 52.1051 33.9359 51.7444 33.5752C51.3838 33.2146 50.8946 33.012 50.3846 33.012H46.5385V29.1658C46.5385 28.6558 46.3359 28.1666 45.9752 27.806C45.6146 27.4453 45.1254 27.2427 44.6154 27.2427C44.1054 27.2427 43.6162 27.4453 43.2556 27.806C42.8949 28.1666 42.6923 28.6558 42.6923 29.1658V33.012H38.8462Z" fill="#EB5757"/>
</svg>
