<svg width="70" height="70" viewBox="0 0 70 70" fill="none" xmlns="http://www.w3.org/2000/svg">
<path d="M32.1125 38.5775L29.2675 35.7325L25.7325 39.2676L32.8875 46.4226L44.58 28.8876L40.42 26.1125L32.1125 38.5775Z" fill="#EB5757"/>
<path d="M57.5 15C54.4925 15 47.5 14.27 47.5 7.5V5H22.5V7.5C22.5 14.27 15.5075 15 12.5 15H10V42.5C10 53.4525 31.505 63.645 33.9575 64.7725L35 65.2525L36.0425 64.775C38.495 63.645 60 53.4525 60 42.5V15H57.5ZM55 42.5C55 48.12 43.1475 55.81 35 59.7375C26.85 55.815 15 48.1275 15 42.5V19.87C21.705 19.15 26.235 15.495 27.2725 10H42.73C43.765 15.495 48.295 19.15 55 19.87V42.5Z" fill="#EB5757"/>
</svg>
