<svg width="70" height="70" viewBox="0 0 70 70" fill="none" xmlns="http://www.w3.org/2000/svg">
<path fill-rule="evenodd" clip-rule="evenodd" d="M34.952 10C40.7377 9.99934 46.3445 12.0054 50.8165 15.6762C55.2886 19.347 58.349 24.4552 59.476 30.1301C60.603 35.8049 59.7269 41.6949 56.997 46.796C54.2671 51.8972 49.8524 55.8935 44.5055 58.1038C39.1587 60.314 33.2108 60.6013 27.6758 58.9167C22.1408 57.2321 17.3615 53.6799 14.1526 48.8657C10.9437 44.0515 9.50388 38.2733 10.0787 32.5163C10.6535 26.7592 13.2073 21.3798 17.3047 17.295C19.6221 14.9785 22.3737 13.1418 25.4019 11.8901C28.43 10.6383 31.6753 9.99602 34.952 10ZM18.6808 49.3597C20.1975 46.3398 22.525 43.8018 25.4027 42.0301C28.2803 40.2583 31.5944 39.3227 34.9738 39.3281C38.3532 39.3335 41.6643 40.2796 44.5363 42.0605C47.4083 43.8415 49.7277 46.3868 51.2348 49.4115C54.0099 46.2819 55.8224 42.4177 56.4548 38.2831C57.0872 34.1485 56.5125 29.9192 54.7997 26.1032C53.0869 22.2872 50.309 19.0468 46.7994 16.7712C43.2899 14.4956 39.198 13.2816 35.0153 13.275C30.8325 13.2683 26.7368 14.4693 23.2201 16.7337C19.7033 18.9981 16.915 22.2296 15.1901 26.0401C13.4652 29.8506 12.877 34.0781 13.4962 38.2147C14.1154 42.3514 15.9157 46.2213 18.6808 49.3597ZM48.7705 51.8067C47.6408 49.0816 45.7293 46.7521 43.2773 45.112C40.8252 43.4718 37.9424 42.5946 34.9923 42.5909C32.0423 42.5872 29.1573 43.4572 26.7011 45.0912C24.2449 46.7252 22.3277 49.0499 21.1911 51.7722C25.0735 54.9697 29.945 56.721 34.9746 56.7273C40.0042 56.7336 44.8802 54.9945 48.7705 51.8067ZM35.0269 16.5408C32.7235 16.5405 30.4914 17.339 28.7108 18.8002C26.9302 20.2613 25.7114 22.2947 25.2621 24.5538C24.8127 26.8129 25.1607 29.1579 26.2466 31.1892C27.3325 33.2205 29.0892 34.8124 31.2173 35.6936C33.3454 36.5748 35.7133 36.6908 37.9173 36.0218C40.1214 35.3528 42.0252 33.9402 43.3045 32.0247C44.5837 30.1093 45.1591 27.8095 44.9327 25.5173C44.7063 23.2251 43.6921 21.0823 42.0628 19.4542C41.1397 18.5291 40.043 17.7954 38.8355 17.2955C37.6281 16.7955 36.3337 16.539 35.0269 16.5408ZM39.7482 21.7688C38.6552 20.6764 37.2173 19.9969 35.6795 19.8459C34.1416 19.6949 32.599 20.0819 31.3144 20.9408C30.0299 21.7997 29.0829 23.0774 28.6349 24.5563C28.1868 26.0352 28.2654 27.6236 28.8573 29.051C29.4491 30.4784 30.5176 31.6565 31.8807 32.3844C33.2437 33.1123 34.817 33.345 36.3324 33.043C37.8479 32.7409 39.2117 31.9228 40.1915 30.7279C41.1713 29.533 41.7065 28.0353 41.7058 26.4901C41.7064 25.613 41.5338 24.7444 41.1978 23.9342C40.8619 23.124 40.3692 22.3881 39.7482 21.7688Z" fill="#EB5757"/>
</svg>
