<svg width="70" height="70" viewBox="0 0 70 70" fill="none" xmlns="http://www.w3.org/2000/svg">
<path d="M35 51.8571H52.8571V37.5714H35V51.8571ZM38.5714 41.1428H49.2857V48.2857H38.5714V41.1428Z" fill="#EB5757"/>
<path d="M36.7857 16.1429H33.2143V19.7143H29.6429V23.2857H33.2143V26.8572H36.7857V23.2857H40.3571V19.7143H36.7857V16.1429Z" fill="#EB5757"/>
<path d="M47.5 9H22.5V19.7143H10V60.7857H60V19.7143H47.5V9ZM26.0714 12.5714H43.9286V30.4286H26.0714V12.5714ZM20.7143 57.2143V41.1429H27.8571V57.2143H20.7143ZM56.4286 23.2857V57.2143H31.4286V37.5714H17.1429V57.2143H13.5714V23.2857H22.5V34H47.5V23.2857H56.4286Z" fill="#EB5757"/>
</svg>
