<svg width="70" height="70" viewBox="0 0 70 70" fill="none" xmlns="http://www.w3.org/2000/svg">
<path d="M60 13H18.8398V27.9171H10V50.0166C10 50.8147 10.1572 51.6049 10.4626 52.3423C10.768 53.0796 11.2157 53.7496 11.78 54.3139C12.3443 54.8782 13.0143 55.3259 13.7516 55.6313C14.489 55.9367 15.2793 56.0939 16.0773 56.0939H52.8177C54.7225 56.0939 56.5494 55.3372 57.8963 53.9903C59.2433 52.6433 60 50.8165 60 48.9116V13ZM18.8398 50.0166C18.8398 50.7492 18.5487 51.4518 18.0307 51.9699C17.5126 52.488 16.81 52.779 16.0773 52.779C15.3447 52.779 14.6421 52.488 14.124 51.9699C13.606 51.4518 13.3149 50.7492 13.3149 50.0166V31.232H18.8398V50.0166ZM56.6851 48.9116C56.6851 49.9373 56.2776 50.921 55.5523 51.6463C54.8271 52.3715 53.8434 52.779 52.8177 52.779H21.4917C21.9298 51.9242 22.1572 50.9771 22.1547 50.0166V16.3149H56.6851V48.9116Z" fill="#EB5757"/>
<path d="M38.0663 19.9061H25.9116V31.5083H38.0663V19.9061ZM34.7514 28.1934H29.2265V23.221H34.7514V28.1934Z" fill="#EB5757"/>
<path d="M52.9834 21.011H40.8287V24.326H52.9834V21.011Z" fill="#EB5757"/>
<path d="M52.9834 27.0884H40.8287V30.4033H52.9834V27.0884Z" fill="#EB5757"/>
<path d="M38.0663 35.9282H25.9116V47.5304H38.0663V35.9282ZM34.7514 44.2155H29.2265V39.2431H34.7514V44.2155Z" fill="#EB5757"/>
<path d="M52.9834 37.0331H40.8287V40.3481H52.9834V37.0331Z" fill="#EB5757"/>
<path d="M52.9834 43.1105H40.8287V46.4254H52.9834V43.1105Z" fill="#EB5757"/>
</svg>
